# xmcd CD database file
#
# Track frame offsets:
#	150
#	16286
#	39668
#	64910
#	88862
#	111450
#	130595
#	148585
#	166304
#	186060
#
# Disc length: 2633 seconds
#
# Revision: 2
# Processed by: cddbd v1.5.1PL2 Copyright (c) Steve Scherf et al.
# Submitted via: CD2WAV32(JP) R3.22
#
DISCID=890a470a
DTITLE=TORANOANA various - Winter Mix vol.03 "PERCENEGE" Vocal side
DYEAR=2006
DGENRE=JPop
TTITLE0=b - felmatteli
TTITLE1=muu. - 光に祈る
TTITLE2=茶太 - 静寂
TTITLE3=佳織みちる - D*rops
TTITLE4=真理絵 - 駆ける夜空
TTITLE5=MintJam - Never let go
TTITLE6=Marica - 白い奇跡
TTITLE7=15-102 (柏木るざりん and 榎津まお) - FUYU-SHO-GUN
TTITLE8=留桜良姫 - Winter Pop!
TTITLE9=片霧烈火 - 静夜に祈りを
EXTD=
EXTT0=曲:onoken 詞:b
EXTT1=曲:菊池創 詞:muu.
EXTT2=曲:柳英一郎 詞:茶太
EXTT3=曲:如月まさと 詞:佳織みちる
EXTT4=曲:bassy 詞:wight
EXTT5=曲:a2c 編:MintJam 詞:wigh
EXTT6=曲:Marica 編:Funczion 詞:MYU
EXTT7=曲詞:15-102 (柏木るざりん and 榎津まお)
EXTT8=曲:HIR 詞:留桜良姫
EXTT9=曲詞:片霧烈火
PLAYORDER=
